<svg width="426" height="83" viewBox="0 0 426 83" fill="none" xmlns="http://www.w3.org/2000/svg">
    <path d="M0 41.4832C0 18.5884 18.7798 0.0336441 41.9499 0V14.9884C27.1598 15.0053 15.1741 26.8648 15.1741 41.4832C15.1741 56.1015 27.1765 67.9947 42.0167 67.9947C56.8235 67.9947 68.8259 56.2361 68.8259 41.3991L84 41.4159C84 64.4116 65.2202 83 42.0167 83C18.8132 83 0 64.4116 0 41.5V41.4832Z" fill="currentColor" />
    <path d="M24 41.5C24 31.2861 32.2885 23 42.5 23C52.7115 23 61 31.2861 61 41.5C61 51.7139 52.7115 60 42.5 60C32.272 60 24 51.7308 24 41.5Z" fill="currentColor" />
    <path d="M55 18.4916C55 12.702 59.6959 8 65.4918 8C71.2877 8 76 12.702 76 18.4916C76 24.298 71.2877 29 65.4918 29C59.6959 29 55 24.298 55 18.4916Z" fill="currentColor" />
    <path d="M383.104 28.6018L381.81 34.8375C378.79 48.4095 377.662 52.7778 375.04 66.2664L374.442 66.7499L366.096 67L365.698 66.4331L369.066 52.5277L370.045 47.976C366.461 47.8926 362.861 47.8259 359.277 47.8259C356.472 47.8259 354.348 47.8592 352.175 47.9259C350.93 53.3947 349.918 58.1966 348.342 66.2664L347.761 66.7499L339.398 67L339 66.4331L342.352 52.5277L343.679 46.4754C345.886 36.9383 346.301 34.8542 347.612 26.0341L348.209 25.4672C352.025 24.9837 352.955 24.817 356.871 24.0167L357.302 24.5836L356.423 28.5851L355.145 34.8209L353.801 40.7231C356.821 40.7898 359.841 40.8399 362.861 40.8399C366.046 40.8399 368.17 40.7732 371.705 40.7065C372.85 35.5378 373.331 32.72 374.326 26.0174L374.907 25.4506C378.757 24.967 379.669 24.8003 383.602 24L384 24.5669L383.137 28.5684L383.104 28.5851V28.6018Z" fill="currentColor" />
    <path d="M290.725 49.7353C288.896 56.7912 283.813 69 268.162 69C257.073 69 251 63.3419 251 52.1939C251 50.7626 251.117 49.1459 251.369 47.462C251.419 47.041 251.486 46.6368 251.537 46.199C254.556 27.7258 262.676 10.2125 280.542 10.0441C282.924 10.0104 287.756 9.77463 291.044 9L289.853 16.3758C286.548 17.201 281.297 17.6388 278.261 17.6556C274.453 17.6893 271.852 19.1038 270.024 20.8383C269.135 21.6803 268.413 22.6234 267.893 23.4653C267.34 24.3073 266.954 25.082 266.669 25.6545C269.051 24.9136 271.668 24.4589 274.604 24.4589C285.508 24.4589 292 30.4538 292 41.0124C292 43.8751 291.514 46.8221 290.759 49.7017L290.725 49.7353ZM282.069 47.1757C282.656 44.8013 283.059 42.4269 283.059 40.1367C283.059 31.8515 277.657 30.4538 274.57 30.4538C261.485 30.4538 259.807 50.4426 259.807 53.4738C259.807 60.0413 263.817 62.904 268.313 62.904C277.221 62.904 280.559 53.8948 282.069 47.1589V47.1757Z" fill="currentColor" />
    <path d="M398.535 41.7471C400.505 40.0625 401.615 39.0116 404.313 36.443C407.177 33.6908 414.13 26.5853 415.438 25.2176L416.348 24.7339H425.768L426 25.4511C425.172 26.185 424.775 26.5019 421.48 29.2541C420.173 30.3216 419.378 31.1222 417.822 32.4899L407.16 42.1808L419.842 66.0326L419.361 66.6664L410.273 66.9166L409.627 66.4329C407.508 61.4123 406.929 60.2948 403.998 54.3902L398.254 42.9147C396.449 50.8708 395.34 55.8747 393.304 66.2661L392.741 66.7498L384.397 67L384 66.4329L387.344 52.5221L388.652 46.4674C390.854 36.9267 391.268 34.8251 392.575 26.0182L393.155 25.4511C396.996 24.9674 397.906 24.8006 401.83 24L402.227 24.5671L401.366 28.5702L400.075 34.8084L398.502 41.7471H398.519H398.535Z" fill="currentColor" />
    <path d="M341 24.7223L340.595 24.0672L329.016 24C321.302 24 310.499 24.4871 302.701 33.3895C299.19 37.4543 296 44.4754 296 50.9254C296 61.1211 302.971 67 311.512 67C318.635 67 322.315 63.9766 323.749 62.8512L323.159 66.1098L323.564 66.6977L331.429 66.5297L332.037 65.9586C333.708 56.2332 334.316 53.1426 337.236 40.5785L341 24.7391V24.7223ZM324.982 56.5523C324.07 57.2746 323.142 58.0977 322.23 58.652C320.053 59.9621 317.2 60.5332 314.938 60.5332C307.292 60.5332 305.132 54.2512 305.132 50.3375C305.132 49.9344 305.284 39.4027 314.078 33.5406C319.04 30.282 324.492 30.1141 327.26 30.1141C328.509 30.1141 329.758 30.1813 331.024 30.1813L324.982 56.5355V56.5523Z" fill="currentColor" />
    <path d="M125.447 59.011C131.838 59.011 134.83 52.5617 136.775 44.241C138.144 38.3932 139.615 29.8219 131.906 29.8219C125.329 29.8219 122.421 35.9371 120.477 44.241C118.668 51.9602 118.262 59.011 125.447 59.011ZM122.472 68C113.359 68 100.256 65.2097 105.007 44.8425C106.782 37.1902 112.226 21 134.661 21C157.096 21 153.225 38.3096 151.872 44.4248C147.848 61.6342 136.994 68 122.455 68H122.472Z" fill="currentColor" />
    <path d="M174.974 66.9167C170.768 66.9167 163.859 66.9167 160.953 67L160.463 66.5002C161.274 63.8012 163.251 56.5039 165.311 47.6238C166.984 40.4265 168.487 34.0955 169.062 31.2133C165.548 31.2966 160.125 31.2966 157.473 31.3799L157 30.7967C157.693 28.5976 158.656 24.799 159.281 22.5165L160.091 22.0833C162.44 22.1666 171.342 22.2499 178.522 22.2499C187.188 22.2499 195.635 22.0833 197.409 22L198 22.4332C197.358 24.4491 196.226 28.5976 195.635 30.7134L194.807 31.2299C191.344 31.1633 188.692 31.1633 183.708 31.1633C183.269 33.0126 181.918 38.4272 179.654 48.0737C177.965 55.371 176.562 62.0352 175.768 66.2669L175.008 66.95H174.991L174.974 66.9167Z" fill="currentColor" />
    <path d="M222.598 32.2129C219.794 32.2129 216.67 32.2962 215.26 32.2962C214.84 34.1622 213.127 41.1096 211.565 47.8738C209.701 55.8208 208.072 63.2847 207.434 66.4002L206.594 66.9167C202.345 66.9167 196.87 66.9167 192.487 67L192 66.5002C192.907 63.0181 195.191 53.555 197.357 44.1585C199.557 34.6953 201.472 25.3821 202.076 22.7664L202.815 22.1666C207.501 22.1666 212.253 22.3499 223.908 22.3499C233.027 22.3499 241.895 22.1 246.614 22L247 22.5165C246.379 24.799 243.759 35.7116 241.256 46.5243C239.224 55.2377 237.377 63.9511 236.89 66.4002L236.252 66.9167C232.524 66.9167 225.655 66.9167 222.061 67L221.675 66.4002C222.431 63.4513 224.11 56.6039 226.075 48.1237C227.569 41.6927 229.081 34.8452 229.685 32.2962C228.292 32.2962 225.168 32.2129 222.582 32.2129H222.598Z" fill="currentColor" />
</svg>